# xmcd
# 
# Track frame offsets:
#     150
#     15925
#     31987
#     50362
#     69140
#     80937
#     88212
#     120565
#     136270
#     148862
#     158915
#     170525
#     183222
#     195417
#     207602
#     222862
#     233705
# 
# Disc length: 3208
# 
# Revision: 13
# Processed by: cddbd v1.5.2PL0 Copyright (c) Steve Scherf et al.
# Submitted via: BonkEnc v1.0.8
# 
DISCID=e90c8611
DTITLE=菅野よう子 - COWBOY BEBOP O. S. T. 1
DYEAR=1998
DGENRE=Soundtrack
TTITLE0=Tank!
TTITLE1=RUSH
TTITLE2=SPOKEY DOKEY
TTITLE3=BAD DOG NO BISCUITS
TTITLE4=CAT BLUES
TTITLE5=COSMOS
TTITLE6=SPACE LION
TTITLE7=WALTZ for ZIZI
TTITLE8=PIANO BLACK
TTITLE9=POT CITY
TTITLE10=TOO GOOD TOO BAD
TTITLE11=CAR24
TTITLE12=The EGG and I
TTITLE13=FELT TIP PEN
TTITLE14=RAIN
TTITLE15=DIGGING MY POTATO
TTITLE16=MEMORY
EXTD=YEAR: 1998
EXTT0=
EXTT1=
EXTT2=
EXTT3=
EXTT4=
EXTT5=
EXTT6=
EXTT7=
EXTT8=
EXTT9=
EXTT10=
EXTT11=
EXTT12=
EXTT13=
EXTT14=
EXTT15=
EXTT16=
PLAYORDER=
